<?xml version="1.0" encoding="UTF-8" standalone="no"?>
<svg
   xmlns:dc="http://purl.org/dc/elements/1.1/"
   xmlns:cc="http://creativecommons.org/ns#"
   xmlns:rdf="http://www.w3.org/1999/02/22-rdf-syntax-ns#"
   xmlns:svg="http://www.w3.org/2000/svg"
   xmlns="http://www.w3.org/2000/svg"
   width="148mm"
   height="175mm"
   viewBox="0 0 148 175"
   version="1.1"
   id="svg8">
  <defs
     id="defs2" />
  <metadata
     id="metadata5">
    <rdf:RDF>
      <cc:Work
         rdf:about="">
        <dc:format>image/svg+xml</dc:format>
        <dc:type
           rdf:resource="http://purl.org/dc/dcmitype/StillImage" />
        <dc:title></dc:title>
      </cc:Work>
    </rdf:RDF>
  </metadata>
  <g
     id="logo"
     transform="translate(0,-148.99993)">
    <path
       style="fill:none;stroke:#0000ff;stroke-width:10;stroke-linecap:butt;stroke-linejoin:miter;stroke-opacity:1"
       d="M 3.5355339,293.1856 144.18568,152.53546"
       id="diagonal" />
    <path
       style="fill:none;stroke:#0000ff;stroke-width:10;stroke-linecap:butt;stroke-linejoin:miter;stroke-opacity:1"
       d="m 23.860608,272.86053 v -100"
       id="left" />
    <path
       id="right"
       d="m 123.86061,272.86053 v -100"
       style="fill:none;stroke:#0000ff;stroke-width:10;stroke-linecap:butt;stroke-linejoin:miter;stroke-opacity:1" />
    <path
       style="fill:none;stroke:#0000ff;stroke-width:10.47891617;stroke-linecap:butt;stroke-linejoin:miter;stroke-opacity:1"
       d="m 18.843946,172.7841 110.013644,0.15287"
       id="top" />
    <path
       id="bottom"
       d="m 23.85594,272.8606 105.00168,0.15302"
       style="fill:none;stroke:#0000ff;stroke-width:10.24206543;stroke-linecap:butt;stroke-linejoin:miter;stroke-opacity:1" />
  </g>
  <g
     style="fill:#0000ff;fill-opacity:1;opacity:1"
     transform="translate(3.2448801,-121.19106)"
     id="text">
    <path
       id="l"
       d="m 3.7120425,286.91962 c 1.58448,0.48814 1.7558,0.44348 1.93355,-0.50401 0.0948,-0.5052 0.35659,-1.07162 0.58181,-1.25871 0.31457,-0.2613 2.82274,-0.35876 10.8202405,-0.42043 l 10.41075,-0.0803 v -1.44108 -1.44107 h -10.72876 c -11.8445405,0 -11.8111005,-0.004 -12.8298605,1.66649 -0.59474,0.9754 -0.72097,3.31481 -0.18773,3.47909 z"
       style="fill:#0000ff;fill-opacity:1;stroke-width:0.26458332;opacity:1" />
    <path
       id="o"
       d="m 35.036545,288.43389 c 0.002,-1.77464 -0.10462,-2.23387 -0.85731,-3.68091 -1.39209,-2.67628 -3.7908,-4.01061 -7.20989,-4.01061 -3.44099,0 -5.82815,1.32151 -7.20421,3.98735 -0.74335,1.44011 -0.86558,1.94704 -0.86558,3.591 0,1.05277 0.18842,2.46648 0.41858,3.14193 0.48707,1.4295 2.01663,3.1111 3.53466,3.88555 2.19482,1.11971 6.02848,1.12448 8.21242,0.0103 2.55612,-1.30404 3.9673,-3.76438 3.97133,-6.92465 z m -2.83341,0.0439 c -2.1e-4,0.8744 -0.14173,1.74892 -0.42427,2.2934 -1.60706,3.09535 -7.98341,3.18373 -9.54463,0.13229 -0.4904,-0.95849 -0.69023,-2.64081 -0.43719,-3.67678 h -5.1e-4 c 0.46753,-1.91409 1.51144,-2.82337 3.75894,-3.27473 2.71741,-0.54574 5.25413,0.36406 6.22443,2.23294 0.28238,0.54388 0.42344,1.41847 0.42323,2.29288 z"
       style="opacity:1;fill:#0000ff;fill-opacity:1;stroke-width:0.26458332" />
    <path
       id="c"
       d="m 35.668958,293.85424 c 0.44082,0.83381 0.53991,0.88243 1.52837,0.74985 0.58134,-0.078 1.11855,-0.20334 1.19379,-0.27859 0.0752,-0.0752 -0.0115,-0.58621 -0.19278,-1.13549 -0.5356,-1.62287 -0.44822,-4.3147 0.17951,-5.52999 1.73512,-3.35925 8.46893,-3.12302 9.65604,0.33874 0.41924,1.22258 0.40431,3.90128 -0.0291,5.21445 -0.17707,0.53652 -0.27052,1.0269 -0.20768,1.08974 0.0628,0.0628 0.66253,0.21669 1.33263,0.34188 1.19505,0.22326 1.22501,0.21188 1.56575,-0.59501 0.21897,-0.51852 0.34739,-1.94742 0.34739,-3.86533 0,-2.61388 -0.0805,-3.19187 -0.57108,-4.10104 -1.30001,-2.4092 -3.43936,-3.61534 -6.70496,-3.78019 -4.00689,-0.20226 -6.36515,0.96696 -7.89127,3.91248 -0.86257,1.66481 -0.88765,1.80015 -0.78453,4.23333 0.0734,1.73105 0.25327,2.79111 0.5779,3.40517 z"
       style="opacity:1;fill:#0000ff;fill-opacity:1;stroke-width:0.26458332" />
    <path
       id="u"
       d="m 50.504384,290.12118 c 0.15477,0.40966 0.59377,1.07225 0.97554,1.47244 l 0.69413,0.7276 h -0.84326 -0.84325 v 1.45521 1.45521 h 7.80521 7.80521 v -1.5875 -1.5875 h -5.80193 c -4.93193,0 -5.86454,-0.0626 -6.21945,-0.41751 -0.74598,-0.74599 -1.01753,-1.51344 -1.03806,-2.93382 -0.0172,-1.19403 0.0905,-1.50999 0.74991,-2.19824 0.42354,-0.44208 1.19356,-0.92143 1.71116,-1.06521 0.51759,-0.14379 3.11397,-0.2621 5.76972,-0.26291 l 4.82865,-10e-4 v -1.6166 -1.61663 l -5.75469,0.11168 c -4.713,0.0915 -5.94626,0.19506 -6.81302,0.57233 -1.30085,0.56621 -2.46209,1.62815 -2.93228,2.68153 -0.42795,0.95877 -0.48285,3.78116 -0.0936,4.81142 z"
       style="opacity:1;fill:#0000ff;fill-opacity:1;stroke-width:0.26458332" />
    <path
       id="s"
       d="m 65.82058,291.41199 c 0.65875,1.42732 1.50719,2.15148 2.98274,2.54585 2.69424,0.72007 4.66584,-0.79466 5.91447,-4.54395 0.86557,-2.59907 1.66069,-3.56332 2.71924,-3.29764 1.01496,0.25474 1.33711,0.59228 1.64046,1.71885 0.334,1.24035 0.11688,2.4676 -0.68614,3.87833 l -0.6234,1.09519 0.5893,0.15796 c 0.32412,0.0869 0.96668,0.1596 1.42793,0.16159 0.77491,0.003 0.87281,-0.0993 1.28833,-1.35029 0.62625,-1.88545 0.44674,-5.33425 -0.34426,-6.61412 -1.15248,-1.86474 -3.77808,-2.60797 -5.80884,-1.64431 -1.11451,0.52887 -1.7599,1.50822 -2.44925,3.71664 -0.95273,3.05214 -1.74397,3.99806 -3.06662,3.6661 -0.91473,-0.22958 -1.27559,-1.11186 -1.26235,-3.08644 0.009,-1.29092 0.18749,-2.12817 0.6882,-3.22185 0.77061,-1.68324 0.70131,-1.78087 -1.26407,-1.78087 -1.14372,0 -1.15364,0.008 -1.68437,1.38906 -0.72754,1.89298 -0.75992,5.69634 -0.0614,7.2099 z"
       style="opacity:1;fill:#0000ff;fill-opacity:1;stroke-width:0.26458332" />
    <path
       id="e"
       d="m 138.13546,288.92286 c 0,-3.89695 -2.0118,-6.43924 -5.87923,-7.43004 -4.05874,-1.03979 -8.26456,0.99448 -9.68054,4.68241 -0.70111,1.82605 -0.743,5.04769 -0.0925,7.12721 0.48464,1.54946 0.92146,1.82246 2.34352,1.46554 0.56537,-0.14189 0.63403,-0.26847 0.47852,-0.8816 -1.26566,-4.99038 -0.17424,-8.20362 3.11816,-9.18135 0.73784,-0.21912 1.43894,-0.39842 1.55805,-0.39842 0.11911,0 0.21652,2.55984 0.21652,5.68854 v 5.68855 h 1.35806 c 1.93825,0 3.26684,-0.47363 4.58628,-1.63504 1.38225,-1.21671 1.99316,-2.78803 1.99316,-5.1258 z m -2.75281,-0.25838 c 0.008,0.79039 -0.17824,1.65887 -0.55913,2.59726 -0.22616,0.55718 -1.46054,1.24695 -2.23139,1.24695 -0.5225,0 -0.54209,-0.14426 -0.54209,-3.9548 v -3.95531 l 0.78703,0.2744 c 0.43286,0.15089 1.13162,0.66691 1.55288,1.1467 0.65086,0.74129 0.98232,1.62859 0.9927,2.6448 z"
       style="opacity:1;fill:#0000ff;fill-opacity:1;stroke-width:0.26458332" />
    <path
       id="n1"
       d="m 86.436261,284.08557 c 6.05677,0 6.27207,0.0505 7.1166,1.66971 0.5891,1.12945 0.59991,3.76227 0.0199,4.84593 -0.76993,1.43849 -1.88914,1.68644 -7.61213,1.68644 h -5.02172 v 1.5875 1.5875 l 4.82865,-0.004 c 5.28185,-0.005 7.26015,-0.30797 8.80052,-1.34988 2.30218,-1.55719 2.98374,-5.58295 1.45544,-8.59673 -0.43473,-0.85725 -0.79191,-1.5755 -0.79375,-1.5961 -0.002,-0.0206 0.2943,-0.11217 0.6581,-0.20348 0.58245,-0.14618 0.66146,-0.30763 0.66146,-1.3516 v -1.18559 h -7.80521 -7.80521 v 1.45521 1.45521 z"
       style="opacity:1;fill:#0000ff;fill-opacity:1;stroke-width:0.26458332" />
    <path
       id="n2"
       d="m 110.77794,284.08556 c 6.05677,0 6.27207,0.0505 7.1166,1.6697 0.5891,1.12946 0.59991,3.76228 0.0199,4.84595 -0.76993,1.43848 -1.88914,1.68644 -7.61213,1.68644 h -5.02172 v 1.5875 1.5875 l 4.82865,-0.004 c 5.28185,-0.005 7.26015,-0.30796 8.80052,-1.34987 2.30218,-1.5572 2.98374,-5.58296 1.45544,-8.59674 -0.43473,-0.85725 -0.79191,-1.5755 -0.79375,-1.5961 -0.002,-0.0206 0.2943,-0.11217 0.6581,-0.20348 0.58245,-0.14619 0.66146,-0.30764 0.66146,-1.3516 v -1.18559 h -7.80521 -7.80521 v 1.45521 1.45521 z"
       style="opacity:1;fill:#0000ff;fill-opacity:1;stroke-width:0.26458332" />
    <path
       id="i"
       d="m 89.948918,283.57082 v 1.5875 1.5875 h 7.805209 7.805213 v -1.5875 -1.5875 h -7.805213 z m 19.050002,0 v 1.5875 1.5875 h 1.5875 1.5875 v -1.5875 -1.5875 h -1.5875 z"
       style="fill:#0000ff;fill-opacity:1;stroke-width:0.26458332" />
  </g>
</svg>
