<?xml version="1.0" encoding="UTF-8" standalone="no"?>
<svg
   xmlns:dc="http://purl.org/dc/elements/1.1/"
   xmlns:cc="http://creativecommons.org/ns#"
   xmlns:rdf="http://www.w3.org/1999/02/22-rdf-syntax-ns#"
   xmlns:svg="http://www.w3.org/2000/svg"
   xmlns="http://www.w3.org/2000/svg"
   xmlns:sodipodi="http://sodipodi.sourceforge.net/DTD/sodipodi-0.dtd"
   xmlns:inkscape="http://www.inkscape.org/namespaces/inkscape"
   id="svg8"
   version="1.1"
   viewBox="0 0 150 25"
   height="25mm"
   width="150mm"
   sodipodi:docname="text.svg"
   inkscape:version="0.92.4 (5da689c313, 2019-01-14)">
  <sodipodi:namedview
     pagecolor="#ffffff"
     bordercolor="#666666"
     borderopacity="1"
     objecttolerance="10"
     gridtolerance="10"
     guidetolerance="10"
     inkscape:pageopacity="0"
     inkscape:pageshadow="2"
     inkscape:window-width="1920"
     inkscape:window-height="1013"
     id="namedview880"
     showgrid="false"
     inkscape:zoom="1.3758333"
     inkscape:cx="280.07017"
     inkscape:cy="-26.091373"
     inkscape:window-x="-9"
     inkscape:window-y="-9"
     inkscape:window-maximized="1"
     inkscape:current-layer="layer1" />
  <defs
     id="defs2" />
  <metadata
     id="metadata5">
    <rdf:RDF>
      <cc:Work
         rdf:about="">
        <dc:format>image/svg+xml</dc:format>
        <dc:type
           rdf:resource="http://purl.org/dc/dcmitype/StillImage" />
        <dc:title></dc:title>
      </cc:Work>
    </rdf:RDF>
  </metadata>
  <g
     transform="translate(0,-272)"
     id="layer1">
    <path
       id="l"
       d="m 17.836204,296.20455 c 0.488138,-1.58448 0.443479,-1.7558 -0.504004,-1.93355 -0.505206,-0.0948 -1.071626,-0.35659 -1.258711,-0.58181 -0.261307,-0.31457 -0.358767,-2.82274 -0.420438,-10.82024 l -0.08028,-10.41075 h -1.441074 -1.441072 v 10.72876 c 0,11.84454 -0.0043,11.8111 1.666491,12.82986 0.975403,0.59474 3.314811,0.72097 3.479088,0.18773 z"
       style="fill:#000000;stroke-width:0.26458332" />
    <path
       id="o"
       d="m 26.935233,280.39824 c -1.774637,-0.002 -2.233875,0.10462 -3.680913,0.85731 -2.676282,1.39209 -4.010608,3.7908 -4.010608,7.20989 0,3.44099 1.321507,5.82815 3.987354,7.20421 1.440106,0.74335 1.947032,0.86558 3.590997,0.86558 1.052769,0 2.46648,-0.18842 3.141927,-0.41858 1.429504,-0.48707 3.111105,-2.01663 3.885549,-3.53466 1.119711,-2.19482 1.124487,-6.02848 0.01034,-8.21242 -1.304036,-2.55612 -3.764375,-3.9673 -6.924643,-3.97133 z m 0.04393,2.83341 c 0.874403,2.1e-4 1.748917,0.14173 2.2934,0.42427 3.09535,1.60706 3.183729,7.98341 0.132292,9.54463 -0.958488,0.4904 -2.640814,0.69023 -3.67678,0.43719 v 5.1e-4 c -1.914096,-0.46753 -2.823371,-1.51144 -3.274735,-3.75894 -0.545735,-2.71741 0.364059,-5.25413 2.232939,-6.22443 0.543885,-0.28238 1.418478,-0.42344 2.292884,-0.42323 z"
       style="fill:#000000;stroke-width:0.26458332" />
    <path
       id="c"
       d="m 48.374954,295.90195 c 0.833816,-0.44082 0.882431,-0.53991 0.749851,-1.52837 -0.07798,-0.58134 -0.203338,-1.11855 -0.278583,-1.19379 -0.07524,-0.0752 -0.586218,0.0115 -1.135496,0.19278 -1.622867,0.5356 -4.314698,0.44822 -5.52999,-0.17951 -3.359245,-1.73512 -3.12302,-8.46893 0.338738,-9.65604 1.222589,-0.41924 3.901281,-0.40431 5.214459,0.0291 0.536514,0.17707 1.026898,0.27052 1.089739,0.20768 0.06284,-0.0628 0.216688,-0.66253 0.341876,-1.33263 0.223261,-1.19505 0.211876,-1.22501 -0.595008,-1.56575 -0.518525,-0.21897 -1.947418,-0.34739 -3.865332,-0.34739 -2.613875,0 -3.191867,0.0805 -4.101042,0.57108 -2.4092,1.30001 -3.61534,3.43936 -3.780184,6.70496 -0.202263,4.00689 0.96696,6.36515 3.912476,7.89127 1.664808,0.86257 1.800153,0.88765 4.233333,0.78453 1.731052,-0.0734 2.791111,-0.25327 3.405163,-0.5779 z"
       style="fill:#000000;stroke-width:0.26458332" />
    <path
       id="u"
       d="m 59.703082,296.25388 c 0.40966,-0.15477 1.07225,-0.59377 1.47244,-0.97554 l 0.7276,-0.69413 v 0.84326 0.84325 h 1.45521 1.45521 v -7.80521 -7.80521 h -1.5875 -1.5875 v 5.80193 c 0,4.93193 -0.0626,5.86454 -0.41751,6.21945 -0.74599,0.74598 -1.51344,1.01753 -2.93382,1.03806 -1.19403,0.0172 -1.50999,-0.0905 -2.19824,-0.74991 -0.44208,-0.42354 -0.92143,-1.19356 -1.06521,-1.71116 -0.14379,-0.51759 -0.2621,-3.11397 -0.26291,-5.76972 l -10e-4,-4.82865 h -1.616603 -1.616626 l 0.111678,5.75469 c 0.09146,4.713 0.195059,5.94626 0.572326,6.81302 0.566211,1.30085 1.628153,2.46209 2.681535,2.93228 0.95877,0.42795 3.78116,0.48285 4.81142,0.0936 z"
       style="fill:#000000;stroke-width:0.26458332" />
    <path
       id="s"
       d="m 76.322922,296.03523 c 1.42732,-0.65875 2.15148,-1.50719 2.54585,-2.98274 0.72007,-2.69424 -0.79466,-4.66584 -4.54395,-5.91447 -2.59907,-0.86557 -3.56332,-1.66069 -3.29764,-2.71924 0.25474,-1.01496 0.59228,-1.33711 1.71885,-1.64046 1.24035,-0.334 2.4676,-0.11688 3.87833,0.68614 l 1.09519,0.6234 0.15796,-0.5893 c 0.0869,-0.32412 0.1596,-0.96668 0.16159,-1.42793 0.003,-0.77491 -0.0993,-0.87281 -1.35029,-1.28833 -1.88545,-0.62625 -5.33425,-0.44674 -6.61412,0.34426 -1.86474,1.15248 -2.60797,3.77808 -1.64431,5.80884 0.52887,1.11451 1.50822,1.7599 3.71664,2.44925 3.05214,0.95273 3.99806,1.74397 3.6661,3.06662 -0.22958,0.91473 -1.11186,1.27559 -3.08644,1.26235 -1.29092,-0.009 -2.12817,-0.18749 -3.22185,-0.6882 -1.68324,-0.77061 -1.78087,-0.70131 -1.78087,1.26407 0,1.14372 0.008,1.15364 1.38906,1.68437 1.89298,0.72754 5.69634,0.75992 7.2099,0.0614 z"
       style="fill:#000000;stroke-width:0.26458332" />
    <path
       id="e"
       d="m 130.54854,280.39565 c -3.89695,0 -6.43924,2.0118 -7.43004,5.87923 -1.03979,4.05874 0.99448,8.26456 4.68241,9.68054 1.82605,0.70111 5.04769,0.743 7.12721,0.0925 1.54946,-0.48464 1.82246,-0.92146 1.46554,-2.34352 -0.14189,-0.56537 -0.26847,-0.63403 -0.8816,-0.47852 -4.99038,1.26566 -8.20362,0.17424 -9.18135,-3.11816 -0.21912,-0.73784 -0.39842,-1.43894 -0.39842,-1.55805 0,-0.11911 2.55984,-0.21652 5.68854,-0.21652 h 5.68855 v -1.35806 c 0,-1.93825 -0.47363,-3.26684 -1.63504,-4.58628 -1.21671,-1.38225 -2.78803,-1.99316 -5.1258,-1.99316 z m -0.25838,2.75281 c 0.79039,-0.008 1.65887,0.17824 2.59726,0.55913 0.55718,0.22616 1.24695,1.46054 1.24695,2.23139 0,0.5225 -0.14426,0.54209 -3.9548,0.54209 h -3.95531 l 0.2744,-0.78703 c 0.15089,-0.43286 0.66691,-1.13162 1.1467,-1.55288 0.74129,-0.65086 1.62859,-0.98232 2.6448,-0.9927 z"
       style="fill:#000000;stroke-width:0.26458332" />
    <path
       id="n1"
       d="m 84.657292,290.77338 c 0,-6.05677 0.0505,-6.27207 1.66971,-7.1166 1.12945,-0.5891 3.76227,-0.59991 4.84593,-0.0199 1.43849,0.76993 1.68644,1.88914 1.68644,7.61213 v 5.02172 h 1.5875 1.5875 l -0.004,-4.82865 c -0.005,-5.28185 -0.30797,-7.26015 -1.34988,-8.80052 -1.55719,-2.30218 -5.58295,-2.98374 -8.59673,-1.45544 -0.85725,0.43473 -1.5755,0.79191 -1.5961,0.79375 -0.0206,0.002 -0.11217,-0.2943 -0.20348,-0.6581 -0.14618,-0.58245 -0.30763,-0.66146 -1.3516,-0.66146 h -1.18559 v 7.80521 7.80521 h 1.45521 1.45521 z"
       style="fill:#000000;stroke-width:0.26458332" />
    <path
       id="n2"
       d="m 108.99896,290.77338 c 0,-6.05677 0.0505,-6.27207 1.6697,-7.1166 1.12946,-0.5891 3.76228,-0.59991 4.84595,-0.0199 1.43848,0.76993 1.68644,1.88914 1.68644,7.61213 v 5.02172 h 1.5875 1.5875 l -0.004,-4.82865 c -0.005,-5.28185 -0.30796,-7.26015 -1.34987,-8.80052 -1.5572,-2.30218 -5.58296,-2.98374 -8.59674,-1.45544 -0.85725,0.43473 -1.5755,0.79191 -1.5961,0.79375 -0.0206,0.002 -0.11217,-0.2943 -0.20348,-0.6581 -0.14619,-0.58245 -0.30764,-0.66146 -1.3516,-0.66146 h -1.18559 v 7.80521 7.80521 h 1.45521 1.45521 z"
       style="fill:#000000;stroke-width:0.26458332" />
    <path
       style="fill:#000000;stroke-width:0.26458332"
       d="m 99.474029,274.04587 v 1.5875 1.5875 h 1.587501 1.5875 v -1.5875 -1.5875 h -1.5875 z m 0,6.61459 v 7.8052 7.80521 h 1.587501 1.5875 v -7.80521 -7.8052 h -1.5875 z"
       id="i"
       inkscape:connector-curvature="0" />
  </g>
</svg>
